<!--?xml version="1.0" encoding="utf-8"?-->
<!-- Svg Vector Icons : http://www.onlinewebfonts.com/icon -->

<svg version="1.1" xmlns="http://www.w3.org/2000/svg" xmlns:xlink="http://www.w3.org/1999/xlink" x="0px" y="0px" viewBox="0 0 256 256" enable-background="new 0 0 256 256" xml:space="preserve">
<metadata> Svg Vector Icons : http://www.onlinewebfonts.com/icon </metadata>
<g><g><path fill="#fbfbfb" data-title="Layer 0" xs="0" d="M128,10C62.9,10,10,62.9,10,128c0,65.1,52.9,118,118,118c65.1,0,118-52.9,118-118C246,62.9,193.1,10,128,10z M237.5,106.5c-1.3-0.5-1.8-0.9-0.9-1.3c0-0.5,0-0.5,0.5-0.9C237.5,105.1,237.5,105.6,237.5,106.5z M237,112.8C230.3,117.2,237.9,107.8,237,112.8L237,112.8z M212.4,70.1c0.5,0.9,0.5,0,0.5-0.5c2.2,0,0.5,0.9,2.2,0.9c0.5,0.5,1.3,1.3,2.7,1.8c0.5-3.1-2.7-6.3-3.1-9.4c-1.8,1.3-5.4,6.3-7.2,2.2c0.5-0.9,0.5-0.5,0.9-1.8c-0.5,0.5-1.3,0.9-1.3,0c0.9-0.9,2.7-4.9,5.8-9c4,4.5,7.6,9.4,10.8,14.4c-1.3,2.2-3.1,4-4.5,4c2.2,1.3,5.4,2.2,8.1,2.2c4.9,9,8.1,18.4,10.3,28.7l0,0c0.5-1.8-1.8-1.8-3.6-1.3c0,0.9-0.5,2.7-1.3,0.5c0,0,0,0,0-0.5c-1.3,3.1,0.9,3.1,1.8,5.4c-1.3,1.3-1.8-0.9-1.3,2.2c-0.5-0.5-0.9-0.5-0.9,0c-0.5,0-0.5-0.9-0.9-0.5c-2.7-2.7,1.8-1.8,1.8-2.2c-3.6-0.5-13-13.5-13.5-14.4c-0.5,0-1.8,0.5-2.2,0.9c-0.5,0,4.9,6.3,7.2,9c0.5,0,1.3,1.3,1.3,1.3s-0.5-0.5-1.3-1.3c0.5,0.9-2.2,4-2.2,4.5c0,0,0,0-0.5,0c0,0.5,0,0.9-0.5,1.8c-5.4,3.1-1.8-1.8-0.5-2.2c-3.1-2.2-5.4-3.6-7.6-4.5c0,0,0,0,0,0.5c-1.3,4.9-0.5,0.9,0-0.5c-9.4-3.1-8.5,8.1-22.9,7.6c-9.4-0.5,4.9-16.6,2.2-22c1.8-0.5,0,0,0.5-0.5l0,0c-0.5,0-0.5,0-0.5,0c0.5,0,0.5,0,0.5,0c2.7-1.3,17.5-16.6,17.9-17.5C211.9,71,212.4,70.6,212.4,70.1z M214.1,69.2C207.9,69.7,215,66.5,214.1,69.2L214.1,69.2z M192.6,65.6c0.9,0.5,1.3,0.9,2.7,0c0,0,2.2,5.8-0.9,5.8c0.5,1.8,11.2,8.1,5.8,9.9c3.6-1.8-8.1,3.1-8.1,3.1c0-0.5-0.5-0.5-0.9-0.5c1.3-2.7,3.6-1.3,4.5-3.1c-0.9,0.5-2.7,0.5-3.6-0.5C198.9,73.3,187.7,72.8,192.6,65.6z M191.3,72.4C192.2,71.9,191.3,74.2,191.3,72.4L191.3,72.4z M191.3,75.5c-1.3,2.7-0.9,5.8-5.8,6.3c0-0.9,0-0.9-0.5-0.9c0-0.9,0.9-0.5-0.5-0.9C184.5,79.5,190.8,69.7,191.3,75.5z M143.7,66.5C144.2,64.7,144.2,67.9,143.7,66.5L143.7,66.5z M132.5,93c0,0-1.3,3.1-1.8,4c4-0.9,4,4.5,5.8,4.5v0.5c-0.5,0.5-4,1.3-4.5,0.9c-0.5-1.3,1.8-2.2-4.9-1.3C127.1,100.6,131.1,92.1,132.5,93z M135.2,190.4C132,197.5,131.1,186.3,135.2,190.4L135.2,190.4z M89.9,36.9c-4,5.8,1.8,2.2,0,7.2c-0.5,0-0.5,0-0.9,0.5c2.2-1.3,24.2-7.2,26.9,4c-3.6,0-0.9,0.5,0.5,1.3c0.5,0,0.5,0,0.5,0.5c0,0,0,0-0.5-0.5c-0.9,0-3.6,1.3-2.7,1.3c1.3,2.7,9.4,4.9,9.4,4.9c2.7,2.2-2.2,2.2-1.8,5.4c-0.5-0.5-6.3-4.9-6.3-3.6c1.8,2.2,0,0.9-0.9,0.5c0.9,3.6,6.3,4,5.8,7.6c-2.2-2.2-0.9,1.3-0.5,1.8c-1.3-1.3-2.7-2.7-4.5-3.1c0.5,1.3,0,1.3-1.3,0c1.8,1.3,3.1,3.1,4,4.9c-8.1-3.1-11.2-4.5-17.5-6.7c0.9-0.5,1.3-1.3,0.9-2.2c12.1-4.9-2.2-16.2-4.9-14.8c0.5,0.5,3.1,1.3,2.7,2.2c-0.5,0.5-15.2,0-14.8-2.7C81.3,45.4,85.8,35.1,89.9,36.9z M103.3,52.6C109.6,54,95.7,54.9,103.3,52.6L103.3,52.6z M82.7,36.5c-1.8,0.5-5.8,5.4-6.7,4.9C76,39.6,77.3,29.7,82.7,36.5z M67.4,36.5c4.9,0.5,5.4,2.7,4.5,2.7l0,0c4,0.9-0.9,4.9-0.9,4.9s-5.8-4-6.3-4.5C65.6,39.2,67.4,36.9,67.4,36.5z M71,49.9C67.9,52.6,77.3,45,71,49.9L71,49.9z M52.6,47.2L52.6,47.2L52.6,47.2c1.3-1.3,3.1-3.1,4.9-4.5l0,0c0.5,0,0.5-0.5,0.5-0.9c0.9-0.9,1.8-1.3,2.7-2.2c1.3,2.2,0.9,4.9,3.1,6.3c0.5,0.5,0.5,0.5,0.5,0.5c9.4,4.9-0.5,0,0,3.6c1.3-0.9,1.8-0.5,2.2,0.5c-3.6,1.3-11.7,1.3-17.5,0C49.9,49.5,51.3,48.1,52.6,47.2z M28.9,94.4C29.3,94.4,29.3,94.4,28.9,94.4c2.2,0,6.3,2.7,6.3,4.5C34.2,100.6,28.4,94.4,28.9,94.4z M149.5,210.6c-0.9,8.5-7.2,18.4-13.9,26.5c-2.2,0-4,0-6.3,0c-8.5,0-17-0.9-25.1-2.7c0.5-5.4,0.5-9.9,0-11.7c-2.7-12.1-15.7-21.1-15.7-31.4c0-5.4,6.3-9,4.9-15.2c-0.9,0.5,7.2-6.3,6.7-6.3v-0.5c-7.6,5.8-8.1-4.9-13.5-7.2c-8.5-4-18.4-6.7-25.6-12.6c-4.5-3.6-6.7-16.6-12.1-18.4c0,0.5-0.5,0.5-1.3,0c-0.5,3.6,9,13.9,7.2,15.2c-13.5-7.2-21.5-33.6-21.1-46.7c0.9,0,1.8,0.5,2.7,0.9c-0.5,0.5-0.9,0.9,0,0.9c0.5-3.6-4.5-10.3-9.9-16.6c4.9-12.1,12.1-23.3,20.6-32.8c0.9,0.5,1.3,0.5,1.3,0.5c-3.1,0.9,6.7,2.2,9.4,4.9c-0.5-8.1,9-2.7,14.8-2.7c0.9-2.2-1.8-0.5-1.8-2.2c4.5-0.9,1.8,2.2,4.5,3.6c0-3.1,1.8-6.3,3.1-5.4c-1.3-2.2-8.1-6.7-3.6-8.5c1.8-0.5,12.1,13.9,11.7,13c4.9-0.9,2.2-6.3,3.1-7.2c9.4,0,1.8,9.4,1.8,9.4c-5.8,0.9-4,0.5-10.3,0.9c1.3,0.9,3.6,2.2,5.4,2.2c-5.4,0.9-1.8,4-9,2.7c0,0.5,4,2.2,3.6,1.8c-10.3,8.5,5.8,22.4,16.2,28.3C97,92.1,97,91.6,98.3,93c0.9-8.1-0.9-22.4,3.6-25.1c10.3-6.7,9.9,21.1,16.6,5.4c6.3,6.3,0.9,10.3,10.3,13c-0.9,1.8-3.6,0.9-4,2.7c12.1-5.4,0,2.7-8.5,8.5c1.3-0.5,2.2-0.5,2.7,1.3c-0.9,1.8-2.2,0.9-3.1,1.3c1.8,1.3,5.4,3.1,7.6,4.9c-0.5,0.9,0,0,0.5,0.5c0,0-0.9,0-0.5,0.5c-3.6-0.5-3.6,2.7-6.3,3.1c0-0.5,0-0.5-0.5-0.5c0-0.9,0-0.9,0-1.3l0,0l0,0c0-0.5,0-0.5,0,0c0.5-0.5,2.2-0.9,2.7-0.9c0-0.5,0.5-0.9,0.9-0.5c-0.9-1.3-1.3-1.3-1.8-1.3c0.5,0.5,0,0.5,0.5,0c-0.9,2.2-0.9,0.5-0.5,0l0,0c0,0-11.2,5.8-8.5,8.1c0.5-0.5,0.9-0.5,0.9-0.5s0.5,0.5-0.5,0.5c-0.5,0-0.5-0.5-0.5-0.5c-1.8,0.9-4.9,3.6-6.3,4c0,0.9-0.9,4.5-0.9,4.5s0-4,0-4.5l-0.5,0.5c0,0.5,0,0,0,0c0,0.5,0,0.5-0.5,0.5c0.9,2.2-0.5,1.8-0.9,1.3c0.5-0.5,0.5-0.5,0,0c-0.5,3.6,2.7,0.9,0.5,2.7c0.9,1.8,1.3,0.5,1.8,2.2c-0.5,0-0.9,0.5-1.3-0.5c-0.5,0.9,1.3,0.9,1.3,0.9c-1.3,2.7-4,9-6.7,18.9c0,0,0,0,0-0.5c-3.6,0.5-5.4-13.9-13.9-9c0-0.5,1.8,1.8,1.8,2.2c-2.2,0.5-9-3.6-10.8,0.9c-9.9,23.8,11.7,10.3,13.5,12.1c0,1.8-4.5,7.6-2.7,9c3.6-1.8,16.6,13,17.9,13c-0.5,0.9-2.2,3.1-0.5,4.5c-0.5,0,1.3-5.4,1.8-4.5c-0.9,2.7,10.3,1.8,11.7,2.2c0.5,0.5-1.3,0.5-0.9,0.5c2.2,1.8,23.3,12.6,15.2,19.3C139.2,199.8,152.7,185,149.5,210.6z M97,64.7c-1.3,0.9-8.5,0-9.9,0.5c0-0.9,2.2-6.3,2.2-5.8C91.7,61.1,94.4,62.9,97,64.7z M124.9,104.2L124.9,104.2C122.2,102.9,128.5,102.9,124.9,104.2z M115.9,172.9C116.8,172.9,115.9,172.9,115.9,172.9L115.9,172.9z M90.8,147.7c3.6-4.5,11.2-0.5,14.8,2.7l0,0C105.6,150.9,91.2,148.2,90.8,147.7z M102.4,154C101.5,158.1,98.4,147.3,102.4,154L102.4,154z M103.8,123.5C103.8,123.5,102.9,121.3,103.8,123.5L103.8,123.5z M217.7,182.7c-7.6-27.8-39.9-12.1-42.2-37.2c-2.7-33.6,23.8-25.6,39.5-35.9c0,10.3,12.6,12.1,24.2,11.2c0,1.8,0,4,0,5.8c0,23.8-7.6,46.2-20.6,64.2C218.6,187.7,218.6,185,217.7,182.7z"/><path fill="#fff7f7" data-title="Layer 1" xs="1" d="M224.5,103.3L224.5,103.3C224,103.3,224,103.3,224.5,103.3L224.5,103.3z"/><path fill="#fbfbfb" data-title="Layer 2" xs="2" d="M72.4,39.2L72.4,39.2C72.4,39.2,71.9,39.2,72.4,39.2z"/></g></g>
</svg>